<?xml version="1.0" encoding="UTF-8"?>
<svg id="Layer_1" xmlns="http://www.w3.org/2000/svg" version="1.1" viewBox="0 0 988.58 955.5">
  <!-- Generator: Adobe Illustrator 30.0.0, SVG Export Plug-In . SVG Version: 2.1.1 Build 123)  -->
  <defs>
    <style>
      .st0 {
        fill: #000e25;
      }
    </style>
  </defs>
  <path class="st0" d="M921.6,613.27c-28.13-31.8-74.33-61.77-138.62-89.9l-46.2-20.09c-34.83-16.07-61.27-34.31-79.35-54.75-18.08-20.42-27.12-47.71-27.12-81.86s11.71-60.09,35.16-79.85c23.43-19.75,52.23-29.63,86.38-29.63,11.38,0,20.75.5,28.13,1.5,7.36,1,15.4,2.86,24.11,5.52,14.72,4.02,27.78,10.89,39.17,20.6,11.38,9.71,22.76,26.29,34.15,49.72l41.18,75.33h10.05l6.03-120.53c-23.45-16.07-51.07-28.79-82.87-38.17-31.81-9.37-65.46-14.06-100.95-14.06-48.89,0-91.58,7.7-128.07,23.1-36.5,15.41-64.96,37.51-85.38,66.3-20.43,28.79-30.63,62.94-30.63,102.45,0,54.92,16.23,98.94,48.72,132.09.53.54,1.12,1.05,1.66,1.59l-27.1,60.35c-5.37,12.05-11.39,23.27-18.08,33.65-6.7,10.39-16.42,18.26-29.13,23.6-12.73,6.03-25.46,10.55-38.17,13.56-12.73,3.02-29.8,4.52-51.23,4.52-38.85,0-73.83-10.2-104.97-30.64-31.14-20.42-55.75-54.57-73.83-102.46-18.08-47.86-27.12-113-27.12-195.36s9.54-148.49,28.63-196.37c19.09-47.87,44.53-82.19,76.34-102.96,31.8-20.75,67.13-31.13,105.97-31.13,14.72,0,26.95,1.17,36.66,3.51,9.7,2.35,19.59,5.87,29.63,10.55,12.05,5.37,22.1,13.23,30.13,23.6,8.03,10.39,15.39,21.94,22.1,34.65l50.22,80.36h10.05l-4.02-123.55c-28.13-15.4-58.26-27.45-90.4-36.16-32.14-8.7-67.3-13.06-105.47-13.06-47.55,0-92.58,7.38-135.1,22.1-42.53,14.74-80.03,36.84-112.5,66.29-32.49,29.47-58.1,65.97-76.84,109.48-18.75,43.54-28.13,94.09-28.13,151.68,0,75.68,15.4,139.62,46.21,191.86,30.79,52.23,72.48,91.57,125.05,118.02,52.56,26.45,111.32,39.68,176.28,39.68,41.51,0,79.68-4.69,114.51-14.07,34.81-9.37,66.3-21.42,94.42-36.16l1.73-82.39c28.93,23.17,64.77,44.22,107.58,63.13l41.18,18.08c35.49,17.42,61.27,35.33,77.34,53.74,16.07,18.43,24.11,44.04,24.11,76.85,0,34.83-11.9,63.28-35.66,85.38-23.78,22.1-56.1,33.15-96.93,33.15-15.41,0-29.3-1.16-41.68-3.51-12.4-2.34-25.29-6.86-38.67-13.56-18.76-8.03-33.5-19.24-44.2-33.65-10.72-14.39-20.76-30.96-30.14-49.72l-31.14-65.28h-10.05l-5.02,136.6c25.44,14.74,57.25,26.62,95.43,35.66s75.66,13.56,112.5,13.56c81.69,0,144.8-18.59,189.34-55.75,44.53-37.16,66.8-85.2,66.8-144.14,0-50.22-14.06-91.24-42.19-123.05Z"/>
</svg>